<svg width="100%" height="100%" viewBox="0 0 16 16" fill="black" xmlns="http://www.w3.org/2000/svg">
  <path d="M16 8C16 3.58222 12.4178 0 8 0C3.58222 0 0 3.58222 0 8C0 12.4178 3.58222 16 8 16C10.3556 15.9956 12.0993 14.7556 12.0993 12.6222C12.0993 10.7896 10.7156 9.64444 8.93037 9.64444C7.78222 9.64444 6.77185 9.89481 6.18074 9.77185C5.86815 9.70667 5.7363 9.50667 5.7363 9.28741C5.7363 9.06222 5.93185 8.84296 6.17926 8.84296C6.2637 8.84296 6.37926 8.87111 6.48444 8.89926C6.94519 9.05778 7.45481 9.14667 7.99111 9.14667C10.0193 9.14667 11.6637 7.88889 11.6637 6.33926C11.6637 5.76444 11.437 5.23111 11.0504 4.78519C11.9615 4.87111 12.603 4.65926 12.9793 4.27852C13.757 5.31704 14.2178 6.60444 14.2178 7.99852C14.2178 9.05037 13.9541 10.04 13.4904 10.9096L12.563 10.4178L13.3689 13.043L15.9941 12.237L15.0667 11.7452C15.6622 10.6296 16 9.35407 16 8ZM7.99111 7.74963C7.21333 7.74963 6.5837 7.11704 6.58222 6.33926C6.58222 5.56148 7.21333 4.93037 7.99111 4.93037C8.77037 4.93037 9.40148 5.56148 9.40148 6.33926C9.40148 7.11704 8.77037 7.74963 7.99111 7.74963ZM10.7674 3.73185C10.4504 3.87407 9.81482 3.88444 9.55704 3.79852C9.08444 3.62815 8.55259 3.53185 7.99259 3.53185C5.96444 3.53185 4.32 4.78963 4.32 6.33926C4.32 6.80148 4.46815 7.23852 4.72741 7.6237C4.56889 7.74963 3.95259 8.31111 3.95259 9.34815C3.95259 10.2741 4.62815 11.203 5.64444 11.4756C6.68593 11.7556 7.93037 11.4207 8.83556 11.4207C9.75556 11.4207 10.3156 11.9022 10.3156 12.6207C10.3156 13.6667 9.22222 14.2133 8.00148 14.2133C4.57037 14.2178 1.78074 11.4281 1.78074 8C1.78074 4.57037 4.57037 1.78074 8 1.78074C9.35259 1.78074 10.6059 2.2163 11.6281 2.95259C11.3748 3.38667 11.1259 3.57037 10.7674 3.73185Z" />
</svg>
